<?xml version="1.0" encoding="UTF-8" standalone="no" ?>
<svg id="logoIcon" class="-logo-icon" width="51" height="50" xmlns="http://www.w3.org/2000/svg">
          <path d="M37.415 31.717a22.205 22.205 0 0 0-11.8-3.382 22.206 22.206 0 0 0-11.8 3.382l-6.563-6.464c5.297-3.83 11.669-5.898 18.363-5.898 6.695 0 13.067 2.068 18.364 5.898l-6.564 6.464zm-20.117 3.43a17.332 17.332 0 0 1 8.317-2.101c2.957 0 5.8.73 8.317 2.101l-8.317 8.19-8.317-8.19zm8.317-28.485l9.35 9.207a36.55 36.55 0 0 0-9.35-1.225c-3.146 0-6.29.415-9.348 1.225l9.348-9.207zm25.383 18.336L25.615 0 .233 24.998.23 25l25.384 25L51 25l-.002-.002z" fill="#FFFFFF" fill-rule="evenodd"></path>
</svg>
